<svg xmlns="http://www.w3.org/2000/svg" width="1280" height="800" viewBox="0 0 1280 800"><rect width="1280" height="800" rx="14" fill="#fafbf9"/><g font-family="Arial, sans-serif" fill="#252c28"><path d="M230 0V800" stroke="#e1e4df"/><text x="36" y="57" font-size="22" font-weight="700">forma.</text><text x="36" y="106" font-size="11" letter-spacing="2" fill="#888">WORKSPACE</text><text x="40" y="157" font-size="15" fill="#818780">Overview</text><text x="40" y="208" font-size="15" fill="#818780">Projects</text><text x="40" y="259" font-size="15" fill="#818780">Analytics</text><text x="40" y="310" font-size="15" fill="#818780">Activity</text><rect x="20" y="335" width="190" height="40" rx="8" fill="#738268" opacity=".12"/><text x="40" y="361" font-size="15" fill="#222">Library</text><text x="40" y="412" font-size="15" fill="#818780">Settings</text><text x="280" y="61" font-size="13" fill="#888">Workspace / Library</text><circle cx="1190" cy="53" r="17" fill="#738268" opacity=".2"/><text x="280" y="133" font-size="36" font-weight="600">Library</text><text x="280" y="166" font-size="16" fill="#838881">A little clarity for everything you are building.</text><rect x="1060" y="113" width="135" height="40" rx="20" fill="#738268"/><text x="1090" y="138" font-size="13" fill="white">New project</text><rect x="280" y="205" width="290" height="108" rx="12" fill="white" stroke="#e5e7e1"/><text x="302" y="238" font-size="13" fill="#888">Total projects</text><text x="302" y="284" font-size="33">36</text><rect x="595" y="205" width="290" height="108" rx="12" fill="white" stroke="#e5e7e1"/><text x="617" y="238" font-size="13" fill="#888">In progress</text><text x="617" y="284" font-size="33">12</text><rect x="910" y="205" width="290" height="108" rx="12" fill="white" stroke="#e5e7e1"/><text x="932" y="238" font-size="13" fill="#888">Completed</text><text x="932" y="284" font-size="33">24</text><text x="280" y="359" font-size="17">Project momentum</text><text x="1092" y="359" font-size="12" fill="#888">This quarter</text><rect x="310" y="485" width="46" height="45" rx="8" fill="#738268" opacity="0.3"/><rect x="397" y="450" width="46" height="80" rx="8" fill="#738268" opacity="0.37"/><rect x="484" y="468" width="46" height="62" rx="8" fill="#738268" opacity="0.44"/><rect x="571" y="420" width="46" height="110" rx="8" fill="#738268" opacity="0.51"/><rect x="658" y="433" width="46" height="97" rx="8" fill="#738268" opacity="0.5800000000000001"/><rect x="745" y="395" width="46" height="135" rx="8" fill="#738268" opacity="0.65"/><rect x="832" y="413" width="46" height="117" rx="8" fill="#738268" opacity="0.72"/><rect x="919" y="375" width="46" height="155" rx="8" fill="#738268" opacity="0.79"/><rect x="1006" y="393" width="46" height="137" rx="8" fill="#738268" opacity="0.8600000000000001"/><text x="280" y="587" font-size="17">Recent work</text><rect x="280" y="605" width="910" height="1" fill="#e7e7e3"/><circle cx="305" cy="629" r="9" fill="#738268" opacity=".3"/><text x="330" y="635" font-size="15">Design system</text><text x="1030" y="635" font-size="13" fill="#777">In progress</text><rect x="280" y="653" width="910" height="1" fill="#e7e7e3"/><circle cx="305" cy="677" r="9" fill="#738268" opacity=".3"/><text x="330" y="683" font-size="15">Website exploration</text><text x="1030" y="683" font-size="13" fill="#777">In progress</text><rect x="280" y="701" width="910" height="1" fill="#e7e7e3"/><circle cx="305" cy="725" r="9" fill="#738268" opacity=".3"/><text x="330" y="731" font-size="15">Product experience</text><text x="1030" y="731" font-size="13" fill="#777">In progress</text></g></svg>